<?xml version="1.0" standalone="no"?>
<!DOCTYPE svg PUBLIC "-//W3C//DTD SVG 20010904//EN"
 "http://www.w3.org/TR/2001/REC-SVG-20010904/DTD/svg10.dtd">
<svg version="1.0" xmlns="http://www.w3.org/2000/svg"
 width="512.000000pt" height="512.000000pt" viewBox="0 0 512.000000 512.000000"
 preserveAspectRatio="xMidYMid meet">

<g transform="translate(0.000000,512.000000) scale(0.100000,-0.100000)"
fill="#000000" stroke="none">
<path d="M2325 5004 c-16 -2 -80 -11 -142 -20 -414 -56 -821 -228 -1183 -498
-123 -92 -385 -353 -482 -481 -270 -357 -436 -761 -500 -1215 -20 -142 -16
-505 6 -655 65 -430 231 -826 497 -1182 89 -118 332 -365 449 -455 252 -194
618 -388 733 -388 48 0 97 27 128 70 10 14 129 376 264 805 263 832 261 825
217 884 -10 14 -50 47 -88 72 -82 54 -179 156 -222 230 -57 101 -77 181 -77
309 0 189 51 308 189 445 128 127 267 185 446 185 179 0 318 -58 446 -185 124
-123 180 -242 191 -406 15 -225 -98 -443 -301 -578 -38 -25 -78 -58 -88 -72
-44 -59 -46 -52 217 -884 135 -429 254 -791 264 -805 31 -43 80 -70 127 -70
84 0 368 134 571 270 598 399 1001 1037 1109 1755 22 146 25 512 6 650 -65
466 -226 858 -500 1220 -99 130 -361 392 -484 484 -357 265 -737 426 -1173
497 -95 15 -545 28 -620 18z"/>
</g>
</svg>
